<?xml version="1.0" encoding="UTF-8"?>
<svg width="16px" height="16px" viewBox="0 0 16 16" version="1.1" xmlns="http://www.w3.org/2000/svg" xmlns:xlink="http://www.w3.org/1999/xlink">
    <!-- Generator: Sketch 63.1 (92452) - https://sketch.com -->
    <title>Artboard</title>
    <desc>Created with Sketch.</desc>
    <g id="Artboard" stroke="none" stroke-width="1" fill="none" fill-rule="evenodd">
        <g id="grafana_mask_icon" transform="translate(3.000000, 0.000000)" fill="#000000" fill-rule="nonzero">
            <path d="M1.28712871,16 C0.643564356,16 0,15.5 0,14.55 L0,12.3 C0,11.4 0.594059406,10.4 1.33663366,9.9 L4.5049505,8 L1.38613861,6.15 C0.643564356,5.7 0.0495049505,4.65 0.0495049505,3.8 L0.0495049505,1.45 C0,0.5 0.643564356,0 1.33663366,0 C1.63366337,0 1.88118812,0.1 2.17821782,0.25 L9.20792079,4.5 C9.7029703,4.8 10,5.25 10,5.75 C10,6.25 9.7029703,6.7 9.20792079,7 L7.52475248,8 L9.20792079,9 C9.7029703,9.3 10,9.75 10,10.25 C10,10.75 9.7029703,11.2 9.20792079,11.5 L2.12871287,15.75 C1.88118812,15.9 1.58415842,16 1.28712871,16 Z M5.99009901,8.9 L2.12871287,11.2 C1.83168317,11.4 1.53465347,11.9 1.53465347,12.25 L1.53465347,14.25 L8.21782178,10.25 L5.99009901,8.9 Z M1.58415842,1.7 L1.58415842,3.75 C1.58415842,4.1 1.88118812,4.6 2.17821782,4.8 L6.03960396,7.1 L8.31683168,5.75 L1.58415842,1.7 Z" id="Shape"></path>
        </g>
    </g>
</svg>